<svg xmlns="http://www.w3.org/2000/svg" xml:space="preserve" id="Capa_1" x="0" y="0" style="enable-background:new 0 0 402.8 284.9" version="1.1" viewBox="0 0 402.8 284.9"><style>.st0{fill:#2c3e50}</style><path d="M165.6 249.2v23.2c0 1.4 0 2.8 1 3.9 1.5 1.6 3.3 2.3 5.4 1.6 2.2-.8 3.1-2.5 3.1-4.9-.1-9.6-.1-19.2-.1-28.8 0-4.8-.6-4.1 4.3-4.2 1.6 0 3.2.1 4.8 0 3-.1 5.2-2.1 5.2-4.6 0-2.6-2.1-4.5-5.1-4.6-1.7 0-3.4.1-5 0-1.4-.2-3.5.9-4.1-1.1-.7-2.3-.6-4.7 1.3-6.7 1.4-1.4 3.1-1.7 4.9-1.7 1.6 0 3.2.1 4.7-.1 2.2-.3 4.2-2.7 3.9-4.9-.3-2.3-1.7-3.8-4.2-3.9-1.8-.1-3.6-.1-5.3-.1-9 .1-14.6 5.6-14.7 14.7-.2 7.4-.1 14.8-.1 22.2zM201.3 230.4c-3.4-1.2-6.2 1-6.2 5.2-.1 12.4 0 24.8 0 37.2 0 3.3 1.9 5.4 4.7 5.3 2.9 0 4.6-2 4.6-5.4V235c0-2.3-.9-3.8-3.1-4.6zM227.7 277.3c6.2 1.3 12.5.6 18.7.5 2.6-.1 4.1-2.2 4-4.6-.1-2.5-1.8-4.1-4.5-4.1-4-.1-7.9 0-11.9-.1-2 0-4-.2-5.8-.9-6.2-2.3-9.8-8.6-8.8-15.5 1-7.3 6-12.1 13-12.4 4.6-.2 9.1 0 13.7-.1 2.7-.1 4.5-2 4.5-4.5.1-2.5-1.7-4.3-4.6-4.4-2.4-.1-4.8 0-7.1 0-2.4 0-4.8-.1-7.1 0-11.5.5-20.5 9.2-21.5 20.8-1.2 12.5 5.9 23 17.4 25.3zM294.3 245.7c-.4-8.9-6.2-14.4-15.1-14.6-5.5-.1-11.1-.1-16.6-.1-3.6 0-5.5 1.5-5.6 4.3 0 2.9 2.1 4.7 5.5 4.7 5.4 0 10.9-.1 16.3 0 3.6.1 6.1 2.4 6.1 5.3s-2.2 4.3-6.2 4.3c-4.3 0-8.5-.5-12.7.3-10.1 1.9-14.7 13.9-8.3 22 3.1 3.9 7.2 5.8 12.1 5.8 6.3.1 12.7.1 19 .2 4.1.1 5.5-1.3 5.5-5.4v-13.1m-9.2-3.7v10.2c0 2.2-1.5 3.2-3.5 3.2-4.2.1-8.3.1-12.5-.1-3.1-.1-5.1-2.3-5.3-5-.2-2.8 1.8-5.3 4.9-5.7 2.8-.3 5.7-.3 8.6-.3 2.6 0 5.1-.1 7.8-2.3zM20.1 253.7v18.4c0 1.4-.2 2.8.8 4 1.3 1.6 2.9 2.4 5 1.7 2.2-.7 3.4-2.2 3.4-4.6v-22.9c0-6.3 4.1-10.4 10.4-10.4 6.5 0 10.4 3.8 10.4 10.3v22.3c0 3.5 1.8 5.6 4.7 5.6 2.9 0 4.7-2.1 4.7-5.6v-22.9c0-5.3-1.7-9.9-5.6-13.6-6.5-6.2-14.5-5.4-22.4-4.6-1.5.2-2.6.4-4.2-.2-4.7-1.8-7 0-7 4.9M342.9 249.5v22.9c0 1.7.2 3.4 1.6 4.6 1.5 1.2 3.2 1.6 5 .8 2-.9 2.8-2.6 2.8-4.8-.1-10.1 0-20.2-.2-30.3 0-2 .6-2.8 2.7-2.7 2.7.1 5.4.1 8-.2 2.6-.3 4.1-1.9 4.1-4.6 0-2.5-1.6-3.9-4.5-4.1-2.1-.1-4.2 0-6.2-.2-1.3-.1-3.2.7-3.7-.8-.7-1.9-.7-4.1.6-6 1.1-1.7 2.8-2.4 4.8-2.5 2.2-.1 4.4 0 6.5-.3 2.4-.3 3.9-2.5 3.5-5-.3-2.4-1.7-3.7-4.2-3.6-2 0-4-.1-5.9-.1-9 .2-14.8 6-14.8 15.1M314.5 277.6c2.8 0 5.6.1 8.3 0 8.5-.4 14.7-6.6 14.5-14.3-.2-6.9-5.2-13.8-14.6-13.6-3.1.1-6.1 0-9.2-.1-2.6-.1-4.2-1.7-4.5-4.3-.3-2.4 1.4-4.5 4-5.1 1.1-.2 2.2-.2 3.2-.2h14.3c3 0 4.7-1.8 4.6-4.6 0-2.8-1.5-4.3-4.5-4.3-5.7 0-11.5-.1-17.2.1-7.5.2-13.3 6.2-13.4 13.5-.1 7.6 5.5 13.5 13.4 13.8 3.3.1 6.5-.1 9.8.1 3 .2 4.9 2.2 4.9 4.9.1 2.8-1.6 4.7-4.6 5.2-1.1.2-2.2.2-3.3.2-4.9-.1-9.7-.2-14.6-.2-3.4 0-5.3 1.5-5.3 4.2-.1 2.8 1.9 4.5 5.2 4.7M149.3 272.3c0 3.6 1.6 5.6 4.6 5.7 2.9.1 4.7-2.1 4.7-5.5 0-12.3 0-24.6-.1-36.8 0-3.6-1.8-5.7-4.7-5.6-2.9.1-4.5 2.1-4.5 5.8V272.3z" class="st0"/><linearGradient id="SVGID_1_" x1="75.548" x2="144.118" y1="248.449" y2="248.449" gradientUnits="userSpaceOnUse"><stop offset="0" style="stop-color:#2e7e33"/><stop offset=".108" style="stop-color:#2f713d"/><stop offset=".303" style="stop-color:#2f5e49"/><stop offset=".494" style="stop-color:#2e504e"/><stop offset=".677" style="stop-color:#2d4650"/><stop offset=".85" style="stop-color:#2c4050"/><stop offset="1" style="stop-color:#2c3e50"/></linearGradient><path d="M87.6 255.1c-1.6-1.5-3.1-3.1-4.8-4.4-2.2-1.8-4.5-1.7-6.1.1-1.8 2-1.4 4 .3 5.8 2.2 2.3 4.5 4.4 6.9 6.6 4.8 4.4 6.2 4.5 10.9-.1 6.3-6.1 12.9-11.7 20.4-16.3 1.4-.9 2.7-1.9 4.8-2.1v17.5c0 3.9.6 7.7 3.2 10.9 3.5 4.2 12.6 6.5 17.8 4.3 1.9-.8 3.4-2.4 3-4.6-.4-2.3-1.9-3.6-4.3-3.7-1.6-.1-3.2.1-4.8 0-4.1-.2-5.8-1.8-5.8-5.9-.1-6.8 0-13.7-.1-20.5 0-2 .6-2.9 2.7-2.8 2.6.1 5.2.1 7.7-.2 2.5-.3 4.4-2.8 4-5.1-.4-2.5-2-3.8-4.6-3.8h-2.7c-2.2-.1-4.9.6-6.4-.4-1.7-1.3-.5-4.2-.6-6.5-.2-3.2-2-5.3-4.8-5.3-2.7 0-4.5 2-4.5 5.2-.1 2.8-.1 5.6 0 8.3 0 1.3-.3 2.2-1.5 2.9-10.1 5.5-19.1 12.3-27.6 20-1.1 1.1-2 1.1-3.1.1z" style="fill:url(#SVGID_1_)"/><path d="M112.9 254.5c-2 1.2-4.4 2.1-5.3 4.8-2.9 8.8-11.6 14.1-20.5 12.7-9.6-1.5-16.7-9.7-16.7-19.2.2-16.2 16.6-23.2 29-16.9 2.4 1.2 3.9.8 5.8-.4 1.6-1 2.1-1.7.1-2.8-1.8-1-3.5-2.3-5.4-3.1-1.2-.5-1.9-.9-1.9-1.8 0-1.3 1.3-3 1.3-4.7 0-5.1-4.2-9.3-9.3-9.3-5.1 0-9.3 4.2-9.3 9.3 0 1.5.9 2.8.9 4 0 2.3-3 2.8-5.3 4.2-8.5 5.1-12.7 13-12 22.9.8 10.3 6.2 17.7 15.6 21.7 9.3 4 18.1 2.5 25.9-3.9 5-4.2 7.9-9.6 8.2-16.2 0-.6.4-2.3-1.1-1.3zm-23.2-35.4c1.8 0 3.3 1.5 3.3 3.3 0 1.8-1.5 3.3-3.3 3.3s-3.3-1.5-3.3-3.3c-.1-1.8 1.4-3.3 3.3-3.3z" class="st0"/><circle cx="153.7" cy="218" r="5.9" class="st0"/><circle cx="200.1" cy="218" r="5.9" class="st0"/><linearGradient id="SVGID_2_" x1="6.341" x2="272.524" y1="119.018" y2="119.018" gradientUnits="userSpaceOnUse"><stop offset="0" style="stop-color:#2c3e50"/><stop offset=".332" style="stop-color:#2c3f50"/><stop offset=".539" style="stop-color:#2a4350"/><stop offset=".712" style="stop-color:#284a50"/><stop offset=".865" style="stop-color:#235350"/><stop offset="1" style="stop-color:#1b5e4e"/></linearGradient><path d="M268.4 141.9h-.1c-5 0-10.9.7-17.1 1.4-6.9.8-14.7 1.6-21.9 1.6-13.3 0-21.3-2.9-25.1-9.3-.7-1.1-1.9-1.9-3.2-2h-.5c-1.1 0-2.3.5-3.1 1.3-1.9 1.9-3.6 4.4-5.5 7-1.5 2.1-3.2 4.5-5 6.5l-5.6 6.3 1.9-8.2c.1-.6.3-1.2.4-1.8.6-2.4 1.2-4.9 1.5-7.5.1-1.3-.3-2.5-1.2-3.4-.8-.8-1.9-1.3-3-1.3h-.4c-7.4.6-12 6.5-16.5 12.3-3.9 5-6.9 7.5-9.8 8.5 0 0-2.4 1-2.5-.1-.1-.5.2-2.4.2-2.4.2-1.5.7-3.6 1.1-5.1 1.2-4.7 2.5-10.1.8-14.8-.5-1.4-1.6-2.4-3-2.7-.3-.1-.6-.1-.9-.1-1.1 0-2.2.4-3 1.2-2.3 2.2-4.6 5.1-7 8.3-2.6 3.3-5.7 7.4-9 10.4l-6.1 5.7 2.6-7.9c.3-.8.6-1.7.9-2.6 1.7-4.9 3.6-10.5 3.1-16.8-.1-1.5-1-2.8-2.3-3.4-.6-.3-1.3-.5-1.9-.5-.8 0-1.6.2-2.2.6-2 1.3-6 4.6-12.2 10-2.1 1.8-5.6 4.9-9 7.7l-6.7 5.6 3.3-8.1.5-1.1c2.2-5.4 3.5-8.5 3.6-10.9.1-1.3-.4-2.6-1.4-3.5-.8-.7-1.8-1.1-2.8-1.1-.3 0-.5 0-.8.1-5.2 1-11.8 5.2-19.5 10h-.1c-5.2 3.3-10.8 6.7-15.3 8.8 1.9-.9 3.7-1.5 5.4-2.5 2.2-1.3 4.4-2.7 6.5-4.1-2.2 1.4-4.3 2.8-6.5 4.1-1.7 1-3.5 1.5-5.4 2.5-.9.3-.8-.3-.4-.6.5-.4.8-.6 1.1-.9C71 134 76.9 129 82.7 123.9c7.1-6.2 14.1-12.5 19.9-20 2.4-3.2 4.6-6.6 5.6-10.5 1.6-6.2-.4-10-6.7-11.1-4.5-.8-8.9-.4-13.1 1-9.8 3.2-18.7 8.2-27.1 14-2 1.4-4 2.9-6 4.3.6-1 1.3-1.7 2.1-2.4 5-4.9 10-9.7 14.9-14.6 1-1 1.9-2.2 2.7-3.5 1.4-2.3.5-4.2-2.2-4.6-2.2-.3-4.1.4-6.1 1.2-5.7 2.4-10.7 5.8-15.5 9.6-10.8 8.4-20.9 17.6-30.6 27.3-4.1 4.1-8 8.4-11.2 13.4-1.9 3-3.4 6.2-3 9.9.2 1.8 1 3 2.6 3.7 2.5 1.1 5.1 1.4 7.5-.3.8-.5 1.3-1.4 2-2.1 2.4-2.3 4.7-4.8 7.2-7 12-10.8 24.9-20.6 38.5-29.4 7.3-4.7 14.9-9.1 22.6-13.4 2.1-1.2 4.7-1.7 7.1-2.2 1.4-.3 1.9.5 1.3 1.9-.4.8-.9 1.7-1.4 2.4-4.5 6-9.8 11.4-15.1 16.6-6.2 6.1-12.5 12.1-18.6 18.3-3.7 3.8-7.5 7.6-10.2 12.2-.9 1.6-1.7 3.3-2.2 5.1-.8 3 .4 5.3 3.3 6.3 2.2.8 3.2.9 6.3 1h.8c7.4 0 16.7-5.9 26.6-12.1l.1-.1c1-.6 1.9-1.2 2.9-1.8l5.5-3.4-2.3 6c-3.7 9.8-3.7 14.6.3 17 .9.5 1.6.8 2.4.8 3.6 0 9.8-5 22.2-15.7l5.7-4.9-2.2 7.2c-1.2 3.7-2.3 8.2-1.7 13.2.2 2.1 1.9 3.7 4 3.8h.9c5.8 0 11.3-3.1 17.5-9.8l3.6-3.9.2 5.3c.1 2.2.7 4 1.8 5.5 1.7 2.3 4.5 3.5 8.3 3.7h.5c6.8 0 11.5-5.1 16-10.9l4.1-5.2-.2 6.6c-.1 2.3.2 4.4.7 6.4.5 1.8 2.1 3 3.9 3.1h.5c9.2 0 15.1-8.3 19.9-14.9l.1-.2 1.3-1.9 1.8 1.5c5.9 4.9 14.8 7.2 27 7.2 7.6 0 15.4-.9 22.9-1.7h.1c6-.7 11.6-1.3 16.1-1.3 1.1 0 2.2-.5 3-1.3.8-.8 1.2-1.9 1.2-3-.3-2.3-2.2-4.2-4.4-4.3z" style="fill:url(#SVGID_2_)"/><path d="M393.7 8.9s-21.5-5-41.4 5c-15.9 7.9-22.1 24-22.1 24 1.1-5.8 4.7-12.4 4.7-12.4-11.9 4.6-18.3 18.9-18.3 18.9l1.1-6.1c-16.7 13.3-19.3 36.2-19.3 36.2-.7-6 1.3-15.3 1.3-15.3C284.1 75.7 289 96 289 96l-10.3 16.7c-2 3.2-3.6 6.3-4.9 9.2 1.1.4 1.9 1.4 2.1 2.6.4 1.9-.8 3.8-2.8 4.2-.7.1-1.3.1-1.9-.1-2.8 8.6-2.8 16.7-2.8 16.7s2.8-5.2 6.9-8.9c5-4.6 9.9-7.2 9.9-7.2.9-9.1 4.7-17.4 4.7-17.4-1.5-1.2-3.3-1.9-4.9-2.3 36-73.4 91.9-92 91.9-92-61 30.1-82.3 85.6-82.3 85.6 21.6-.9 28.9-14.1 28.9-14.1-5.5.7-8.4-.2-8.4-.2 12.2-1.7 20.8-9.8 20.8-9.8-8 2.3-15 2.1-15 2.1 20.5-5 29.8-15.6 29.8-15.6-5.8 1.4-11 1.6-11 1.6 14.9-7.2 22.8-19 22.8-19-7.6 2-14 .9-14 .9 21.7-5.4 27.7-15.9 27.7-15.9-6.4 2.4-11.2 2.1-11.2 2.1 19.8-5.4 28.7-26.3 28.7-26.3z" class="st0"/>
    <style>
        path { fill: #000; }
        @media (prefers-color-scheme: dark) {
        path { fill: #fff; }
        }
    </style>
</svg>